<?xml version="1.0" encoding="UTF-8" standalone="no"?>
<!DOCTYPE svg PUBLIC "-//W3C//DTD SVG 1.1//EN" "http://www.w3.org/Graphics/SVG/1.1/DTD/svg11.dtd">
<svg width="100%" height="100%" viewBox="0 0 120 54" version="1.1" xmlns="http://www.w3.org/2000/svg" xmlns:xlink="http://www.w3.org/1999/xlink" xml:space="preserve" xmlns:serif="http://www.serif.com/" style="fill-rule:evenodd;clip-rule:evenodd;stroke-linecap:round;stroke-linejoin:round;">
    <g id="g3633" transform="matrix(0.312086,0,0,0.311335,1.03779,67.4115)">
        <rect id="rect1307-9" x="-2.872" y="-216.37" width="382.68" height="173.622" style="fill:rgb(41,165,0);stroke:white;stroke-width:1.77px;"/>
        <rect id="rect2182-4" x="-2.87" y="-216.37" width="31.89" height="173.622" style="fill:rgb(33,123,0);stroke:white;stroke-width:1.77px;"/>
        <rect id="rect2184-8" x="348.272" y="-216.37" width="31.89" height="173.622" style="fill:rgb(33,123,0);stroke:white;stroke-width:1.77px;"/>
        <path id="path2186-8" d="M45.469,-216.469L45.469,-42.656L45.469,-216.469ZM61.094,-216.469L61.094,-42.656L61.094,-216.469ZM77.344,-216.469L77.344,-42.656L77.344,-216.469ZM92.969,-216.469L92.969,-42.656L92.969,-216.469ZM109.25,-216.469L109.25,-42.656L109.25,-216.469ZM124.875,-216.469L124.875,-42.656L124.875,-216.469ZM141.125,-216.469L141.125,-42.656L141.125,-216.469ZM156.75,-216.469L156.75,-42.656L156.75,-216.469ZM173.031,-216.469L173.031,-42.656L173.031,-216.469ZM188.656,-216.469L188.656,-42.656L188.656,-216.469ZM204.906,-216.469L204.906,-42.656L204.906,-216.469ZM220.531,-216.469L220.531,-42.656L220.531,-216.469ZM236.813,-216.469L236.813,-42.656L236.813,-216.469ZM252.438,-216.469L252.438,-42.656L252.438,-216.469ZM268.688,-216.469L268.688,-42.656L268.688,-216.469ZM284.313,-216.469L284.313,-42.656L284.313,-216.469ZM300.594,-216.469L300.594,-42.656L300.594,-216.469ZM316.219,-216.469L316.219,-42.656L316.219,-216.469ZM332.469,-216.469L332.469,-42.656L332.469,-216.469ZM35.563,-134.344L35.563,-124.75L35.563,-134.344ZM341.688,-134.344L341.688,-124.75L341.688,-134.344Z" style="fill:none;fill-rule:nonzero;stroke:white;stroke-width:0.89px;stroke-linecap:butt;stroke-linejoin:miter;"/>
        <path id="path2897-2" d="M328.781,-214.373L328.781,-209.243M325.597,-214.373L325.597,-209.243M322.413,-214.373L322.413,-209.243M319.228,-214.373L319.228,-209.243M345.049,-214.373L345.049,-209.243M341.865,-214.373L341.865,-209.243M338.681,-214.373L338.681,-209.243M335.497,-214.373L335.497,-209.243M296.891,-214.373L296.891,-209.243M293.707,-214.373L293.707,-209.243M290.523,-214.373L290.523,-209.243M287.339,-214.373L287.339,-209.243M313.16,-214.373L313.16,-209.243M309.975,-214.373L309.975,-209.243M306.791,-214.373L306.791,-209.243M303.607,-214.373L303.607,-209.243M265.001,-214.373L265.001,-209.243M261.817,-214.373L261.817,-209.243M258.633,-214.373L258.633,-209.243M255.449,-214.373L255.449,-209.243M281.27,-214.373L281.27,-209.243M278.086,-214.373L278.086,-209.243M274.902,-214.373L274.902,-209.243M271.718,-214.373L271.718,-209.243M233.112,-214.373L233.112,-209.243M229.927,-214.373L229.927,-209.243M226.743,-214.373L226.743,-209.243M223.559,-214.373L223.559,-209.243M249.38,-214.373L249.38,-209.243M246.196,-214.373L246.196,-209.243M243.012,-214.373L243.012,-209.243M239.828,-214.373L239.828,-209.243M201.222,-214.373L201.222,-209.243M198.038,-214.373L198.038,-209.243M194.854,-214.373L194.854,-209.243M191.669,-214.373L191.669,-209.243M217.49,-214.373L217.49,-209.243M214.306,-214.373L214.306,-209.243M211.122,-214.373L211.122,-209.243M207.938,-214.373L207.938,-209.243M169.332,-214.373L169.332,-209.243M166.148,-214.373L166.148,-209.243M162.964,-214.373L162.964,-209.243M159.78,-214.373L159.78,-209.243M185.601,-214.373L185.601,-209.243M182.416,-214.373L182.416,-209.243M179.232,-214.373L179.232,-209.243M176.048,-214.373L176.048,-209.243M137.442,-214.373L137.442,-209.243M134.258,-214.373L134.258,-209.243M131.074,-214.373L131.074,-209.243M127.89,-214.373L127.89,-209.243M153.711,-214.373L153.711,-209.243M150.527,-214.373L150.527,-209.243M147.343,-214.373L147.343,-209.243M144.158,-214.373L144.158,-209.243M105.552,-214.373L105.552,-209.243M102.368,-214.373L102.368,-209.243M99.184,-214.373L99.184,-209.243M96,-214.373L96,-209.243M121.821,-214.373L121.821,-209.243M118.637,-214.373L118.637,-209.243M115.453,-214.373L115.453,-209.243M112.269,-214.373L112.269,-209.243M73.663,-214.373L73.663,-209.243M70.479,-214.373L70.479,-209.243M67.294,-214.373L67.294,-209.243M64.11,-214.373L64.11,-209.243M89.931,-214.373L89.931,-209.243M86.747,-214.373L86.747,-209.243M83.563,-214.373L83.563,-209.243M80.379,-214.373L80.379,-209.243M41.773,-214.373L41.773,-209.243M38.589,-214.373L38.589,-209.243M35.405,-214.373L35.405,-209.243M32.221,-214.373L32.221,-209.243M58.041,-214.373L58.041,-209.243M54.857,-214.373L54.857,-209.243M51.673,-214.373L51.673,-209.243M48.489,-214.373L48.489,-209.243" style="fill:none;fill-rule:nonzero;stroke:white;stroke-width:1.33px;stroke-linecap:butt;stroke-linejoin:miter;"/>
        <path id="path2947-4" d="M-5.25,-146.313L-0.469,-146.313L-5.25,-146.313ZM-5.25,-112.813L-0.469,-112.813L-5.25,-112.813Z" style="fill:none;fill-rule:nonzero;stroke:white;stroke-width:1.33px;stroke-linecap:butt;stroke-linejoin:miter;"/>
        <g id="use3179" transform="matrix(1,0,0,1,-2.49892e-05,57.4453)">
            <path d="M328.781,-214.373L328.781,-209.243M325.597,-214.373L325.597,-209.243M322.413,-214.373L322.413,-209.243M319.228,-214.373L319.228,-209.243M345.049,-214.373L345.049,-209.243M341.865,-214.373L341.865,-209.243M338.681,-214.373L338.681,-209.243M335.497,-214.373L335.497,-209.243M296.891,-214.373L296.891,-209.243M293.707,-214.373L293.707,-209.243M290.523,-214.373L290.523,-209.243M287.339,-214.373L287.339,-209.243M313.16,-214.373L313.16,-209.243M309.975,-214.373L309.975,-209.243M306.791,-214.373L306.791,-209.243M303.607,-214.373L303.607,-209.243M265.001,-214.373L265.001,-209.243M261.817,-214.373L261.817,-209.243M258.633,-214.373L258.633,-209.243M255.449,-214.373L255.449,-209.243M281.27,-214.373L281.27,-209.243M278.086,-214.373L278.086,-209.243M274.902,-214.373L274.902,-209.243M271.718,-214.373L271.718,-209.243M233.112,-214.373L233.112,-209.243M229.927,-214.373L229.927,-209.243M226.743,-214.373L226.743,-209.243M223.559,-214.373L223.559,-209.243M249.38,-214.373L249.38,-209.243M246.196,-214.373L246.196,-209.243M243.012,-214.373L243.012,-209.243M239.828,-214.373L239.828,-209.243M201.222,-214.373L201.222,-209.243M198.038,-214.373L198.038,-209.243M194.854,-214.373L194.854,-209.243M191.669,-214.373L191.669,-209.243M217.49,-214.373L217.49,-209.243M214.306,-214.373L214.306,-209.243M211.122,-214.373L211.122,-209.243M207.938,-214.373L207.938,-209.243M169.332,-214.373L169.332,-209.243M166.148,-214.373L166.148,-209.243M162.964,-214.373L162.964,-209.243M159.78,-214.373L159.78,-209.243M185.601,-214.373L185.601,-209.243M182.416,-214.373L182.416,-209.243M179.232,-214.373L179.232,-209.243M176.048,-214.373L176.048,-209.243M137.442,-214.373L137.442,-209.243M134.258,-214.373L134.258,-209.243M131.074,-214.373L131.074,-209.243M127.89,-214.373L127.89,-209.243M153.711,-214.373L153.711,-209.243M150.527,-214.373L150.527,-209.243M147.343,-214.373L147.343,-209.243M144.158,-214.373L144.158,-209.243M105.552,-214.373L105.552,-209.243M102.368,-214.373L102.368,-209.243M99.184,-214.373L99.184,-209.243M96,-214.373L96,-209.243M121.821,-214.373L121.821,-209.243M118.637,-214.373L118.637,-209.243M115.453,-214.373L115.453,-209.243M112.269,-214.373L112.269,-209.243M73.663,-214.373L73.663,-209.243M70.479,-214.373L70.479,-209.243M67.294,-214.373L67.294,-209.243M64.11,-214.373L64.11,-209.243M89.931,-214.373L89.931,-209.243M86.747,-214.373L86.747,-209.243M83.563,-214.373L83.563,-209.243M80.379,-214.373L80.379,-209.243M41.773,-214.373L41.773,-209.243M38.589,-214.373L38.589,-209.243M35.405,-214.373L35.405,-209.243M32.221,-214.373L32.221,-209.243M58.041,-214.373L58.041,-209.243M54.857,-214.373L54.857,-209.243M51.673,-214.373L51.673,-209.243M48.489,-214.373L48.489,-209.243" style="fill:none;fill-rule:nonzero;stroke:white;stroke-width:1.33px;stroke-linecap:butt;stroke-linejoin:miter;"/>
        </g>
        <g id="use3199" transform="matrix(1,0,0,1,1.08145e-08,107.052)">
            <path d="M328.781,-214.373L328.781,-209.243M325.597,-214.373L325.597,-209.243M322.413,-214.373L322.413,-209.243M319.228,-214.373L319.228,-209.243M345.049,-214.373L345.049,-209.243M341.865,-214.373L341.865,-209.243M338.681,-214.373L338.681,-209.243M335.497,-214.373L335.497,-209.243M296.891,-214.373L296.891,-209.243M293.707,-214.373L293.707,-209.243M290.523,-214.373L290.523,-209.243M287.339,-214.373L287.339,-209.243M313.16,-214.373L313.16,-209.243M309.975,-214.373L309.975,-209.243M306.791,-214.373L306.791,-209.243M303.607,-214.373L303.607,-209.243M265.001,-214.373L265.001,-209.243M261.817,-214.373L261.817,-209.243M258.633,-214.373L258.633,-209.243M255.449,-214.373L255.449,-209.243M281.27,-214.373L281.27,-209.243M278.086,-214.373L278.086,-209.243M274.902,-214.373L274.902,-209.243M271.718,-214.373L271.718,-209.243M233.112,-214.373L233.112,-209.243M229.927,-214.373L229.927,-209.243M226.743,-214.373L226.743,-209.243M223.559,-214.373L223.559,-209.243M249.38,-214.373L249.38,-209.243M246.196,-214.373L246.196,-209.243M243.012,-214.373L243.012,-209.243M239.828,-214.373L239.828,-209.243M201.222,-214.373L201.222,-209.243M198.038,-214.373L198.038,-209.243M194.854,-214.373L194.854,-209.243M191.669,-214.373L191.669,-209.243M217.49,-214.373L217.49,-209.243M214.306,-214.373L214.306,-209.243M211.122,-214.373L211.122,-209.243M207.938,-214.373L207.938,-209.243M169.332,-214.373L169.332,-209.243M166.148,-214.373L166.148,-209.243M162.964,-214.373L162.964,-209.243M159.78,-214.373L159.78,-209.243M185.601,-214.373L185.601,-209.243M182.416,-214.373L182.416,-209.243M179.232,-214.373L179.232,-209.243M176.048,-214.373L176.048,-209.243M137.442,-214.373L137.442,-209.243M134.258,-214.373L134.258,-209.243M131.074,-214.373L131.074,-209.243M127.89,-214.373L127.89,-209.243M153.711,-214.373L153.711,-209.243M150.527,-214.373L150.527,-209.243M147.343,-214.373L147.343,-209.243M144.158,-214.373L144.158,-209.243M105.552,-214.373L105.552,-209.243M102.368,-214.373L102.368,-209.243M99.184,-214.373L99.184,-209.243M96,-214.373L96,-209.243M121.821,-214.373L121.821,-209.243M118.637,-214.373L118.637,-209.243M115.453,-214.373L115.453,-209.243M112.269,-214.373L112.269,-209.243M73.663,-214.373L73.663,-209.243M70.479,-214.373L70.479,-209.243M67.294,-214.373L67.294,-209.243M64.11,-214.373L64.11,-209.243M89.931,-214.373L89.931,-209.243M86.747,-214.373L86.747,-209.243M83.563,-214.373L83.563,-209.243M80.379,-214.373L80.379,-209.243M41.773,-214.373L41.773,-209.243M38.589,-214.373L38.589,-209.243M35.405,-214.373L35.405,-209.243M32.221,-214.373L32.221,-209.243M58.041,-214.373L58.041,-209.243M54.857,-214.373L54.857,-209.243M51.673,-214.373L51.673,-209.243M48.489,-214.373L48.489,-209.243" style="fill:none;fill-rule:nonzero;stroke:white;stroke-width:1.33px;stroke-linecap:butt;stroke-linejoin:miter;"/>
        </g>
        <g id="use3219" transform="matrix(1,0,0,1,-2.49892e-05,164.498)">
            <path d="M328.781,-214.373L328.781,-209.243M325.597,-214.373L325.597,-209.243M322.413,-214.373L322.413,-209.243M319.228,-214.373L319.228,-209.243M345.049,-214.373L345.049,-209.243M341.865,-214.373L341.865,-209.243M338.681,-214.373L338.681,-209.243M335.497,-214.373L335.497,-209.243M296.891,-214.373L296.891,-209.243M293.707,-214.373L293.707,-209.243M290.523,-214.373L290.523,-209.243M287.339,-214.373L287.339,-209.243M313.16,-214.373L313.16,-209.243M309.975,-214.373L309.975,-209.243M306.791,-214.373L306.791,-209.243M303.607,-214.373L303.607,-209.243M265.001,-214.373L265.001,-209.243M261.817,-214.373L261.817,-209.243M258.633,-214.373L258.633,-209.243M255.449,-214.373L255.449,-209.243M281.27,-214.373L281.27,-209.243M278.086,-214.373L278.086,-209.243M274.902,-214.373L274.902,-209.243M271.718,-214.373L271.718,-209.243M233.112,-214.373L233.112,-209.243M229.927,-214.373L229.927,-209.243M226.743,-214.373L226.743,-209.243M223.559,-214.373L223.559,-209.243M249.38,-214.373L249.38,-209.243M246.196,-214.373L246.196,-209.243M243.012,-214.373L243.012,-209.243M239.828,-214.373L239.828,-209.243M201.222,-214.373L201.222,-209.243M198.038,-214.373L198.038,-209.243M194.854,-214.373L194.854,-209.243M191.669,-214.373L191.669,-209.243M217.49,-214.373L217.49,-209.243M214.306,-214.373L214.306,-209.243M211.122,-214.373L211.122,-209.243M207.938,-214.373L207.938,-209.243M169.332,-214.373L169.332,-209.243M166.148,-214.373L166.148,-209.243M162.964,-214.373L162.964,-209.243M159.78,-214.373L159.78,-209.243M185.601,-214.373L185.601,-209.243M182.416,-214.373L182.416,-209.243M179.232,-214.373L179.232,-209.243M176.048,-214.373L176.048,-209.243M137.442,-214.373L137.442,-209.243M134.258,-214.373L134.258,-209.243M131.074,-214.373L131.074,-209.243M127.89,-214.373L127.89,-209.243M153.711,-214.373L153.711,-209.243M150.527,-214.373L150.527,-209.243M147.343,-214.373L147.343,-209.243M144.158,-214.373L144.158,-209.243M105.552,-214.373L105.552,-209.243M102.368,-214.373L102.368,-209.243M99.184,-214.373L99.184,-209.243M96,-214.373L96,-209.243M121.821,-214.373L121.821,-209.243M118.637,-214.373L118.637,-209.243M115.453,-214.373L115.453,-209.243M112.269,-214.373L112.269,-209.243M73.663,-214.373L73.663,-209.243M70.479,-214.373L70.479,-209.243M67.294,-214.373L67.294,-209.243M64.11,-214.373L64.11,-209.243M89.931,-214.373L89.931,-209.243M86.747,-214.373L86.747,-209.243M83.563,-214.373L83.563,-209.243M80.379,-214.373L80.379,-209.243M41.773,-214.373L41.773,-209.243M38.589,-214.373L38.589,-209.243M35.405,-214.373L35.405,-209.243M32.221,-214.373L32.221,-209.243M58.041,-214.373L58.041,-209.243M54.857,-214.373L54.857,-209.243M51.673,-214.373L51.673,-209.243M48.489,-214.373L48.489,-209.243" style="fill:none;fill-rule:nonzero;stroke:white;stroke-width:1.33px;stroke-linecap:butt;stroke-linejoin:miter;"/>
        </g>
        <g id="g3405" transform="matrix(1,0,0,1,-13.5,-227)">
            <g transform="matrix(1,0,0,1,74.1961,162.837)">
                <g id="text3645">
                    <text x="-10.555px" y="0px" style="font-family:'LucidaGrande-Bold', 'Lucida Grande', sans-serif;font-weight:600;font-size:16px;fill:white;stroke:rgb(128,128,128);stroke-width:0.18px;stroke-linecap:butt;stroke-linejoin:miter;">10</text>
                </g>
            </g>
            <g transform="matrix(1,0,0,1,106.086,162.837)">
                <g id="text3649">
                    <text x="-10.555px" y="0px" style="font-family:'LucidaGrande-Bold', 'Lucida Grande', sans-serif;font-weight:600;font-size:16px;fill:white;stroke:rgb(128,128,128);stroke-width:0.18px;stroke-linecap:butt;stroke-linejoin:miter;">20</text>
                </g>
            </g>
            <g transform="matrix(1,0,0,1,137.976,162.837)">
                <g id="text3653">
                    <text x="-10.555px" y="0px" style="font-family:'LucidaGrande-Bold', 'Lucida Grande', sans-serif;font-weight:600;font-size:16px;fill:white;stroke:rgb(128,128,128);stroke-width:0.18px;stroke-linecap:butt;stroke-linejoin:miter;">30</text>
                </g>
            </g>
            <g transform="matrix(1,0,0,1,169.865,162.837)">
                <g id="text3657">
                    <text x="-10.555px" y="0px" style="font-family:'LucidaGrande-Bold', 'Lucida Grande', sans-serif;font-weight:600;font-size:16px;fill:white;stroke:rgb(128,128,128);stroke-width:0.18px;stroke-linecap:butt;stroke-linejoin:miter;">40</text>
                </g>
            </g>
            <g transform="matrix(1,0,0,1,201.755,162.837)">
                <g id="text3661">
                    <text x="-10.555px" y="0px" style="font-family:'LucidaGrande-Bold', 'Lucida Grande', sans-serif;font-weight:600;font-size:16px;fill:white;stroke:rgb(128,128,128);stroke-width:0.18px;stroke-linecap:butt;stroke-linejoin:miter;">50</text>
                </g>
            </g>
            <path id="path3683" d="M59.979,156.88L63.957,155.732L63.957,158.028L59.979,156.88Z" style="fill:white;"/>
            <g id="use3332" transform="matrix(1,0,0,1,31.8886,6.94563e-08)">
                <path d="M59.979,156.88L63.957,155.732L63.957,158.028L59.979,156.88Z" style="fill:white;"/>
            </g>
            <g id="use3334" transform="matrix(1,0,0,1,63.7784,6.94563e-08)">
                <path d="M59.979,156.88L63.957,155.732L63.957,158.028L59.979,156.88Z" style="fill:white;"/>
            </g>
            <g id="use3336" transform="matrix(1,0,0,1,95.6682,6.94563e-08)">
                <path d="M59.979,156.88L63.957,155.732L63.957,158.028L59.979,156.88Z" style="fill:white;"/>
            </g>
            <g id="use3338" transform="matrix(-1,0,0,1,309.686,-4.02734e-06)">
                <path d="M59.979,156.88L63.957,155.732L63.957,158.028L59.979,156.88Z" style="fill:white;"/>
            </g>
            <g id="use3340" transform="matrix(-1,0,0,1,341.576,-2.10474e-06)">
                <path d="M59.979,156.88L63.957,155.732L63.957,158.028L59.979,156.88Z" style="fill:white;"/>
            </g>
            <g id="use3342" transform="matrix(-1,0,0,1,373.466,-2.10474e-06)">
                <path d="M59.979,156.88L63.957,155.732L63.957,158.028L59.979,156.88Z" style="fill:white;"/>
            </g>
            <g id="use3344" transform="matrix(-1,0,0,1,405.354,-4.02734e-06)">
                <path d="M59.979,156.88L63.957,155.732L63.957,158.028L59.979,156.88Z" style="fill:white;"/>
            </g>
            <g transform="matrix(1,0,0,1,329.314,162.837)">
                <g id="use3021">
                    <text x="-10.555px" y="0px" style="font-family:'LucidaGrande-Bold', 'Lucida Grande', sans-serif;font-weight:600;font-size:16px;fill:white;stroke:rgb(128,128,128);stroke-width:0.18px;stroke-linecap:butt;stroke-linejoin:miter;">10</text>
                </g>
            </g>
            <g transform="matrix(1,0,0,1,297.424,162.837)">
                <g id="use3023">
                    <text x="-10.555px" y="0px" style="font-family:'LucidaGrande-Bold', 'Lucida Grande', sans-serif;font-weight:600;font-size:16px;fill:white;stroke:rgb(128,128,128);stroke-width:0.18px;stroke-linecap:butt;stroke-linejoin:miter;">20</text>
                </g>
            </g>
            <g transform="matrix(1,0,0,1,265.535,162.837)">
                <g id="use3025">
                    <text x="-10.555px" y="0px" style="font-family:'LucidaGrande-Bold', 'Lucida Grande', sans-serif;font-weight:600;font-size:16px;fill:white;stroke:rgb(128,128,128);stroke-width:0.18px;stroke-linecap:butt;stroke-linejoin:miter;">30</text>
                </g>
            </g>
            <g transform="matrix(1,0,0,1,233.645,162.837)">
                <g id="use3027">
                    <text x="-10.555px" y="0px" style="font-family:'LucidaGrande-Bold', 'Lucida Grande', sans-serif;font-weight:600;font-size:16px;fill:white;stroke:rgb(128,128,128);stroke-width:0.18px;stroke-linecap:butt;stroke-linejoin:miter;">40</text>
                </g>
            </g>
        </g>
        <g id="use3385" transform="matrix(1,0,0,1,382.669,0.011407)">
            <path d="M-5.25,-146.313L-0.469,-146.313L-5.25,-146.313ZM-5.25,-112.813L-0.469,-112.813L-5.25,-112.813Z" style="fill:none;fill-rule:nonzero;stroke:white;stroke-width:1.33px;stroke-linecap:butt;stroke-linejoin:miter;"/>
        </g>
        <g id="use3433" transform="matrix(-1,0,0,-1,390.437,-32.1181)">
            <g transform="matrix(1,0,0,1,74.1961,162.837)">
                <g id="text36451" serif:id="text3645">
                    <text x="-10.555px" y="0px" style="font-family:'LucidaGrande-Bold', 'Lucida Grande', sans-serif;font-weight:600;font-size:16px;fill:white;stroke:rgb(128,128,128);stroke-width:0.18px;stroke-linecap:butt;stroke-linejoin:miter;">10</text>
                </g>
            </g>
            <g transform="matrix(1,0,0,1,106.086,162.837)">
                <g id="text36491" serif:id="text3649">
                    <text x="-10.555px" y="0px" style="font-family:'LucidaGrande-Bold', 'Lucida Grande', sans-serif;font-weight:600;font-size:16px;fill:white;stroke:rgb(128,128,128);stroke-width:0.18px;stroke-linecap:butt;stroke-linejoin:miter;">20</text>
                </g>
            </g>
            <g transform="matrix(1,0,0,1,137.976,162.837)">
                <g id="text36531" serif:id="text3653">
                    <text x="-10.555px" y="0px" style="font-family:'LucidaGrande-Bold', 'Lucida Grande', sans-serif;font-weight:600;font-size:16px;fill:white;stroke:rgb(128,128,128);stroke-width:0.18px;stroke-linecap:butt;stroke-linejoin:miter;">30</text>
                </g>
            </g>
            <g transform="matrix(1,0,0,1,169.865,162.837)">
                <g id="text36571" serif:id="text3657">
                    <text x="-10.555px" y="0px" style="font-family:'LucidaGrande-Bold', 'Lucida Grande', sans-serif;font-weight:600;font-size:16px;fill:white;stroke:rgb(128,128,128);stroke-width:0.18px;stroke-linecap:butt;stroke-linejoin:miter;">40</text>
                </g>
            </g>
            <g transform="matrix(1,0,0,1,201.755,162.837)">
                <g id="text36611" serif:id="text3661">
                    <text x="-10.555px" y="0px" style="font-family:'LucidaGrande-Bold', 'Lucida Grande', sans-serif;font-weight:600;font-size:16px;fill:white;stroke:rgb(128,128,128);stroke-width:0.18px;stroke-linecap:butt;stroke-linejoin:miter;">50</text>
                </g>
            </g>
            <path id="path36831" serif:id="path3683" d="M59.979,156.88L63.957,155.732L63.957,158.028L59.979,156.88Z" style="fill:white;"/>
            <g id="use33321" serif:id="use3332" transform="matrix(1,0,0,1,31.8886,6.94563e-08)">
                <path d="M59.979,156.88L63.957,155.732L63.957,158.028L59.979,156.88Z" style="fill:white;"/>
            </g>
            <g id="use33341" serif:id="use3334" transform="matrix(1,0,0,1,63.7784,6.94563e-08)">
                <path d="M59.979,156.88L63.957,155.732L63.957,158.028L59.979,156.88Z" style="fill:white;"/>
            </g>
            <g id="use33361" serif:id="use3336" transform="matrix(1,0,0,1,95.6682,6.94563e-08)">
                <path d="M59.979,156.88L63.957,155.732L63.957,158.028L59.979,156.88Z" style="fill:white;"/>
            </g>
            <g id="use33381" serif:id="use3338" transform="matrix(-1,0,0,1,309.686,-4.02734e-06)">
                <path d="M59.979,156.88L63.957,155.732L63.957,158.028L59.979,156.88Z" style="fill:white;"/>
            </g>
            <g id="use33401" serif:id="use3340" transform="matrix(-1,0,0,1,341.576,-2.10474e-06)">
                <path d="M59.979,156.88L63.957,155.732L63.957,158.028L59.979,156.88Z" style="fill:white;"/>
            </g>
            <g id="use33421" serif:id="use3342" transform="matrix(-1,0,0,1,373.466,-2.10474e-06)">
                <path d="M59.979,156.88L63.957,155.732L63.957,158.028L59.979,156.88Z" style="fill:white;"/>
            </g>
            <g id="use33441" serif:id="use3344" transform="matrix(-1,0,0,1,405.354,-4.02734e-06)">
                <path d="M59.979,156.88L63.957,155.732L63.957,158.028L59.979,156.88Z" style="fill:white;"/>
            </g>
            <g transform="matrix(1,0,0,1,329.314,162.837)">
                <g id="use30211" serif:id="use3021">
                    <text x="-10.555px" y="0px" style="font-family:'LucidaGrande-Bold', 'Lucida Grande', sans-serif;font-weight:600;font-size:16px;fill:white;stroke:rgb(128,128,128);stroke-width:0.18px;stroke-linecap:butt;stroke-linejoin:miter;">10</text>
                </g>
            </g>
            <g transform="matrix(1,0,0,1,297.424,162.837)">
                <g id="use30231" serif:id="use3023">
                    <text x="-10.555px" y="0px" style="font-family:'LucidaGrande-Bold', 'Lucida Grande', sans-serif;font-weight:600;font-size:16px;fill:white;stroke:rgb(128,128,128);stroke-width:0.18px;stroke-linecap:butt;stroke-linejoin:miter;">20</text>
                </g>
            </g>
            <g transform="matrix(1,0,0,1,265.535,162.837)">
                <g id="use30251" serif:id="use3025">
                    <text x="-10.555px" y="0px" style="font-family:'LucidaGrande-Bold', 'Lucida Grande', sans-serif;font-weight:600;font-size:16px;fill:white;stroke:rgb(128,128,128);stroke-width:0.18px;stroke-linecap:butt;stroke-linejoin:miter;">30</text>
                </g>
            </g>
            <g transform="matrix(1,0,0,1,233.645,162.837)">
                <g id="use30271" serif:id="use3027">
                    <text x="-10.555px" y="0px" style="font-family:'LucidaGrande-Bold', 'Lucida Grande', sans-serif;font-weight:600;font-size:16px;fill:white;stroke:rgb(128,128,128);stroke-width:0.18px;stroke-linecap:butt;stroke-linejoin:miter;">40</text>
                </g>
            </g>
        </g>
    </g>
</svg>
